<svg width="32" height="32" viewBox="0 0 32 32" fill="none" xmlns="http://www.w3.org/2000/svg">
<path d="M16.0013 26.6784C17.1052 26.6784 18 25.7836 18 24.6797V18.0091H24.6693C25.7726 18.0091 26.6672 17.1151 26.668 16.0117C26.6686 14.9073 25.7736 14.0117 24.6693 14.0117H18V7.34246C18 6.23911 17.106 5.34447 16.0026 5.34375C14.8982 5.34303 14.0026 6.2381 14.0026 7.34246V14.0117H7.33201C6.22817 14.0117 5.33331 14.9065 5.33331 16.0104C5.33331 17.1143 6.22817 18.0091 7.33201 18.0091H14.0026V24.6797C14.0026 25.7836 14.8974 26.6784 16.0013 26.6784Z" stroke="#141B34" stroke-width="1.5" stroke-linecap="round" stroke-linejoin="round"/>
</svg>
