<svg width="32" height="32" viewBox="0 0 32 32" fill="none" xmlns="http://www.w3.org/2000/svg">
<path d="M4 16C4 10.3431 4 7.51472 5.75736 5.75736C7.51472 4 10.3431 4 16 4C21.6568 4 24.4853 4 26.2427 5.75736C28 7.51472 28 10.3431 28 16C28 21.6568 28 24.4853 26.2427 26.2427C24.4853 28 21.6568 28 16 28C10.3431 28 7.51472 28 5.75736 26.2427C4 24.4853 4 21.6568 4 16Z" stroke="#141B34" stroke-width="1.5" stroke-linecap="round" stroke-linejoin="round"/>
<path d="M21.3334 16C21.3334 18.9455 18.9455 21.3333 16 21.3333C13.0545 21.3333 10.6667 18.9455 10.6667 16C10.6667 13.0545 13.0545 10.6667 16 10.6667C18.9455 10.6667 21.3334 13.0545 21.3334 16Z" stroke="#141B34" stroke-width="1.5" stroke-linecap="round" stroke-linejoin="round"/>
<path d="M23.1664 9.00033H22.9997M23.3331 9.00033C23.3331 9.18443 23.1837 9.33366 22.9997 9.33366C22.8156 9.33366 22.6664 9.18443 22.6664 9.00033C22.6664 8.81623 22.8156 8.66699 22.9997 8.66699C23.1837 8.66699 23.3331 8.81623 23.3331 9.00033Z" stroke="#141B34" stroke-width="1.5" stroke-linecap="round" stroke-linejoin="round"/>
</svg>
