<svg width="32" height="32" viewBox="0 0 32 32" fill="none" xmlns="http://www.w3.org/2000/svg">
<path d="M2.66144 14C2.66144 12.9723 2.6794 11.9691 2.71357 11.0004C2.82521 7.83578 2.88102 6.25346 4.1682 4.95661C5.45537 3.65976 7.08237 3.59014 10.3364 3.45093C12.1217 3.37454 14.0227 3.33334 15.9948 3.33334C17.9669 3.33334 19.8679 3.37454 21.6532 3.45093C24.9072 3.59014 26.5341 3.65976 27.8213 4.95661C29.1085 6.25346 29.1644 7.83578 29.276 11.0004C29.3101 11.9691 29.3281 12.9723 29.3281 14C29.3281 15.0277 29.3101 16.0309 29.276 16.9996C29.1644 20.1643 29.1085 21.7465 27.8213 23.0435C26.5341 24.3403 24.9072 24.4099 21.6531 24.5491C20.6745 24.5909 19.6612 24.6223 18.6205 24.642C17.6323 24.6607 17.1383 24.6701 16.7041 24.8355C16.27 25.0008 15.9047 25.314 15.1741 25.9404L12.2682 28.4323C12.0917 28.5835 11.867 28.6667 11.6347 28.6667C11.0972 28.6667 10.6614 28.2309 10.6614 27.6935V24.5625C10.5527 24.5581 10.4443 24.5537 10.3364 24.5491C7.08237 24.4099 5.45537 24.3403 4.1682 23.0433C2.88102 21.7465 2.82521 20.1643 2.71357 16.9996C2.6794 16.0309 2.66144 15.0277 2.66144 14Z" stroke="#141B34" stroke-width="1.5" stroke-linecap="round" stroke-linejoin="round"/>
<path d="M11.9948 15.1111C11.9948 15.1111 13.3281 15.1111 14.6615 17.3333C14.6615 17.3333 17.5635 11.7778 21.3282 10.6667" stroke="#141B34" stroke-width="1.5" stroke-linecap="round" stroke-linejoin="round"/>
</svg>
