<svg width="76" height="76" viewBox="0 0 76 76" fill="none" xmlns="http://www.w3.org/2000/svg">
<g clip-path="url(#clip0_64_220)">
<path d="M12.9133 32.6314C8.92159 51.411 19.4455 63.462 31.9652 66.1231C44.485 68.7843 59.0006 62.0556 62.9923 43.276L12.9133 32.6314Z" fill="white"/>
<path d="M12.9133 32.6314C8.92159 51.411 19.4455 63.462 31.9652 66.1231C44.485 68.7843 59.0006 62.0556 62.9923 43.276L12.9133 32.6314" stroke="#1E1B19" stroke-width="2.55989" stroke-linejoin="round"/>
<path d="M19.1735 33.962C23.0342 26.059 26.3859 25.681 29.2286 32.8279C32.0713 39.9749 35.423 39.5968 39.2837 31.6939C43.1444 23.7909 45.8308 26.5428 47.3429 39.9496C48.855 53.3564 52.4285 51.9351 58.0633 35.6856" stroke="#1E1B19" stroke-width="2.55989" stroke-linecap="round" stroke-linejoin="round"/>
<path d="M26.0989 32.1627C32.4898 22.6166 36.8848 22.4604 39.2839 31.6939C41.6831 40.9275 45.6346 42.8578 51.1384 37.485" stroke="#1E1B19" stroke-width="2.55989" stroke-linecap="round" stroke-linejoin="round"/>
<path d="M65.1861 17.5715L44.214 39.2845" stroke="#1E1B19" stroke-width="2.55989" stroke-linecap="round"/>
<path d="M70.7809 22.0321L50.4742 40.6152" stroke="#1E1B19" stroke-width="2.55989" stroke-linecap="round"/>
<path d="M23.3985 47.9454C23.1047 49.3274 23.9882 50.6879 25.3702 50.9816C26.7522 51.2754 28.1126 50.3919 28.4064 49.0099C28.7001 47.6279 27.8166 46.2675 26.4347 45.9737C25.0527 45.68 23.6922 46.5635 23.3985 47.9454Z" fill="#1E1B19"/>
<path d="M42.1789 51.9374C41.8852 53.3193 42.7687 54.6798 44.1506 54.9735C45.5326 55.2673 46.8931 54.3838 47.1868 53.0018C47.4806 51.6198 46.5971 50.2594 45.2151 49.9656C43.8331 49.6719 42.4727 50.5554 42.1789 51.9374Z" fill="#1E1B19"/>
<path d="M30.8321 56.0682C32.4752 58.5984 34.5618 59.0419 37.092 57.3988" stroke="#1E1B19" stroke-width="1.91992" stroke-linecap="round"/>
</g>
<defs>
<clipPath id="clip0_64_220">
<rect width="64" height="63.9993" fill="white" transform="translate(13.3063 0.000318527) rotate(12)"/>
</clipPath>
</defs>
</svg>
