<svg width="27" height="27" viewBox="0 0 27 27" fill="none" xmlns="http://www.w3.org/2000/svg">
<path d="M9.33333 16.3333C8.86667 16.3333 8.47222 16.1722 8.15 15.85C7.82778 15.5278 7.66667 15.1333 7.66667 14.6667C7.66667 14.2 7.82778 13.8056 8.15 13.4833C8.47222 13.1611 8.86667 13 9.33333 13C9.8 13 10.1944 13.1611 10.5167 13.4833C10.8389 13.8056 11 14.2 11 14.6667C11 15.1333 10.8389 15.5278 10.5167 15.85C10.1944 16.1722 9.8 16.3333 9.33333 16.3333ZM17.3333 16.3333C16.8667 16.3333 16.4722 16.1722 16.15 15.85C15.8278 15.5278 15.6667 15.1333 15.6667 14.6667C15.6667 14.2 15.8278 13.8056 16.15 13.4833C16.4722 13.1611 16.8667 13 17.3333 13C17.8 13 18.1944 13.1611 18.5167 13.4833C18.8389 13.8056 19 14.2 19 14.6667C19 15.1333 18.8389 15.5278 18.5167 15.85C18.1944 16.1722 17.8 16.3333 17.3333 16.3333ZM13.3333 24C16.3111 24 18.8333 22.9667 20.9 20.9C22.9667 18.8333 24 16.3111 24 13.3333C24 12.8 23.9667 12.2833 23.9 11.7833C23.8333 11.2833 23.7111 10.8 23.5333 10.3333C23.0667 10.4444 22.6 10.5278 22.1333 10.5833C21.6667 10.6389 21.1778 10.6667 20.6667 10.6667C18.6444 10.6667 16.7333 10.2333 14.9333 9.36667C13.1333 8.5 11.6 7.28889 10.3333 5.73333C9.62222 7.46667 8.60556 8.97222 7.28333 10.25C5.96111 11.5278 4.42222 12.4889 2.66667 13.1333C2.66667 13.1778 2.66667 13.2111 2.66667 13.2333C2.66667 13.2556 2.66667 13.2889 2.66667 13.3333C2.66667 16.3111 3.7 18.8333 5.76667 20.9C7.83333 22.9667 10.3556 24 13.3333 24ZM13.3333 26.6667C11.4889 26.6667 9.75556 26.3167 8.13333 25.6167C6.51111 24.9167 5.1 23.9667 3.9 22.7667C2.7 21.5667 1.75 20.1556 1.05 18.5333C0.35 16.9111 0 15.1778 0 13.3333C0 11.4889 0.35 9.75556 1.05 8.13333C1.75 6.51111 2.7 5.1 3.9 3.9C5.1 2.7 6.51111 1.75 8.13333 1.05C9.75556 0.35 11.4889 0 13.3333 0C15.1778 0 16.9111 0.35 18.5333 1.05C20.1556 1.75 21.5667 2.7 22.7667 3.9C23.9667 5.1 24.9167 6.51111 25.6167 8.13333C26.3167 9.75556 26.6667 11.4889 26.6667 13.3333C26.6667 15.1778 26.3167 16.9111 25.6167 18.5333C24.9167 20.1556 23.9667 21.5667 22.7667 22.7667C21.5667 23.9667 20.1556 24.9167 18.5333 25.6167C16.9111 26.3167 15.1778 26.6667 13.3333 26.6667ZM11.5333 2.83333C12.4667 4.38889 13.7333 5.63889 15.3333 6.58333C16.9333 7.52778 18.7111 8 20.6667 8C20.9778 8 21.2778 7.98333 21.5667 7.95C21.8556 7.91667 22.1556 7.87778 22.4667 7.83333C21.5333 6.27778 20.2667 5.02778 18.6667 4.08333C17.0667 3.13889 15.2889 2.66667 13.3333 2.66667C13.0222 2.66667 12.7222 2.68333 12.4333 2.71667C12.1444 2.75 11.8444 2.78889 11.5333 2.83333ZM3.23333 9.96667C4.36667 9.32222 5.35556 8.48889 6.2 7.46667C7.04444 6.44444 7.67778 5.3 8.1 4.03333C6.96667 4.67778 5.97778 5.51111 5.13333 6.53333C4.28889 7.55556 3.65556 8.7 3.23333 9.96667Z" fill="#795745"/>
</svg>
