<svg width="32" height="32" viewBox="0 0 32 32" fill="none" xmlns="http://www.w3.org/2000/svg">
<path d="M10.6667 21.3333L22.2935 20.3644C25.9315 20.0613 26.7482 19.2667 27.1514 15.6385L28 8" stroke="#141B34" stroke-width="1.5" stroke-linecap="round"/>
<path d="M8 8H29.3333" stroke="#141B34" stroke-width="1.5" stroke-linecap="round"/>
<path d="M7.99998 29.3333C9.47274 29.3333 10.6666 28.1394 10.6666 26.6667C10.6666 25.1939 9.47274 24 7.99998 24C6.52722 24 5.33331 25.1939 5.33331 26.6667C5.33331 28.1394 6.52722 29.3333 7.99998 29.3333Z" stroke="#141B34" stroke-width="1.5"/>
<path d="M22.6667 29.3333C24.1394 29.3333 25.3333 28.1394 25.3333 26.6667C25.3333 25.1939 24.1394 24 22.6667 24C21.1939 24 20 25.1939 20 26.6667C20 28.1394 21.1939 29.3333 22.6667 29.3333Z" stroke="#141B34" stroke-width="1.5"/>
<path d="M10.6667 26.6667H20" stroke="#141B34" stroke-width="1.5" stroke-linecap="round"/>
<path d="M2.66669 2.66666H3.95469C5.21426 2.66666 6.31221 3.49944 6.6177 4.68656L10.5847 20.102C10.7852 20.8811 10.6136 21.7063 10.1177 22.3488L8.84286 24" stroke="#141B34" stroke-width="1.5" stroke-linecap="round"/>
</svg>
