<svg width="32" height="32" viewBox="0 0 32 32" fill="none" xmlns="http://www.w3.org/2000/svg">
<path d="M2.66669 16.6667C2.66669 15.1939 3.86059 14 5.33335 14C7.54249 14 9.33335 15.7908 9.33335 18V23.3333C9.33335 25.5425 7.54249 27.3333 5.33335 27.3333C3.86059 27.3333 2.66669 26.1395 2.66669 24.6667V16.6667Z" fill="#D9D9D9" stroke="#000000" stroke-width="1.5" stroke-linecap="round" stroke-linejoin="round"/>
<path d="M20.6382 10.4083L20.2832 11.5551C19.9922 12.4948 19.8468 12.9646 19.9586 13.3357C20.0492 13.6359 20.2478 13.8947 20.5186 14.0649C20.8533 14.2753 21.3596 14.2753 22.3721 14.2753H22.9108C26.3376 14.2753 28.0509 14.2753 28.8602 15.2897C28.9526 15.4056 29.0349 15.5289 29.1061 15.6583C29.7286 16.7895 29.0209 18.3135 27.6053 21.3615C26.3062 24.1585 25.6566 25.5571 24.4506 26.3803C24.334 26.4599 24.214 26.5351 24.091 26.6055C22.8213 27.3333 21.2482 27.3333 18.1018 27.3333H17.4194C13.6076 27.3333 11.7017 27.3333 10.5175 26.186C9.33331 25.0385 9.33331 23.1919 9.33331 19.4985V18.2004C9.33331 16.2595 9.33331 15.2891 9.67777 14.4008C10.0222 13.5125 10.6818 12.7822 12.0009 11.3215L17.4561 5.28074C17.5929 5.12924 17.6613 5.05348 17.7217 5.00099C18.2846 4.51103 19.1536 4.56618 19.6458 5.12312C19.6986 5.18279 19.7562 5.26654 19.8714 5.43404C20.0517 5.69606 20.1418 5.82707 20.2205 5.95686C20.9237 7.11883 21.1365 8.49914 20.8144 9.80952C20.7784 9.95588 20.7317 10.1068 20.6382 10.4083Z" fill="#D9D9D9" stroke="#000000" stroke-width="1.5" stroke-linecap="round" stroke-linejoin="round"/>
</svg>
