<svg width="32" height="32" viewBox="0 0 32 32" fill="none" xmlns="http://www.w3.org/2000/svg">
<path d="M28.7254 14.7267C29.1307 15.2951 29.3334 15.5793 29.3334 16C29.3334 16.4207 29.1307 16.7049 28.7254 17.2733C26.9039 19.8275 22.2523 25.3333 16 25.3333C9.74773 25.3333 5.09615 19.8275 3.27474 17.2733C2.86937 16.7049 2.66669 16.4207 2.66669 16C2.66669 15.5793 2.86937 15.2951 3.27474 14.7267C5.09615 12.1726 9.74773 6.66666 16 6.66666C22.2523 6.66666 26.9039 12.1726 28.7254 14.7267Z" stroke="#141B34" stroke-width="1.5"/>
<path d="M20 16C20 13.7908 18.2092 12 16 12C13.7908 12 12 13.7908 12 16C12 18.2092 13.7908 20 16 20C18.2092 20 20 18.2092 20 16Z" stroke="#141B34" stroke-width="1.5"/>
</svg>
